<svg width="141" height="55" viewBox="0 0 141 55" fill="none" xmlns="http://www.w3.org/2000/svg">
<rect x="0.812576" y="0.5" width="138.865" height="53.5686" rx="8.12745" fill="#151F32"/>
<path d="M40.2466 28.244C40.2615 27.0865 40.569 25.9515 41.1404 24.9446C41.7118 23.9378 42.5287 23.0919 43.5149 22.4856C42.8884 21.5908 42.0619 20.8545 41.101 20.335C40.1401 19.8155 39.0713 19.5273 37.9796 19.4931C35.6507 19.2487 33.3929 20.8867 32.2061 20.8867C30.9963 20.8867 29.1691 19.5174 27.2015 19.5579C25.9288 19.599 24.6884 19.9691 23.6013 20.6321C22.5141 21.2951 21.6173 22.2285 20.9981 23.3411C18.3158 27.985 20.3165 34.81 22.8859 38.5638C24.1714 40.4019 25.6738 42.4551 27.6396 42.3823C29.5633 42.3025 30.2818 41.1556 32.6039 41.1556C34.9044 41.1556 35.5785 42.3823 37.5842 42.336C39.6484 42.3025 40.949 40.4897 42.1894 38.6342C43.113 37.3245 43.8237 35.8769 44.2952 34.3452C43.096 33.838 42.0726 32.989 41.3526 31.904C40.6326 30.819 40.248 29.5462 40.2466 28.244Z" fill="#2EBDB6"/>
<path d="M36.4581 17.0254C37.5836 15.6743 38.1381 13.9377 38.0038 12.1843C36.2843 12.3649 34.696 13.1867 33.5552 14.486C32.9975 15.1208 32.5704 15.8592 32.2982 16.6591C32.026 17.459 31.9142 18.3047 31.969 19.1479C32.8291 19.1568 33.68 18.9703 34.4576 18.6027C35.2351 18.235 35.9192 17.6958 36.4581 17.0254Z" fill="#2EBDB6"/>
<path d="M53.3077 20.598H54.6666C55.3711 20.598 55.9499 20.3752 56.4028 19.9294C56.863 19.4765 57.093 18.8258 57.093 17.9774C57.093 17.1219 56.8666 16.4676 56.4136 16.0147C55.9607 15.5546 55.3819 15.3245 54.6773 15.3245H53.3077V20.598ZM54.7097 21.7843H52.0136V14.1382H54.7205C55.7989 14.1382 56.6868 14.4797 57.3842 15.1627C58.0888 15.8457 58.4411 16.784 58.4411 17.9774C58.4411 19.1637 58.0888 20.0948 57.3842 20.7706C56.6796 21.4464 55.7881 21.7843 54.7097 21.7843ZM60.9714 20.3823C61.259 20.6771 61.6077 20.8245 62.0175 20.8245C62.4273 20.8245 62.7724 20.6771 63.0528 20.3823C63.3404 20.0876 63.4842 19.6778 63.4842 19.1529C63.4842 18.6353 63.3404 18.2327 63.0528 17.9451C62.7724 17.6503 62.4273 17.5029 62.0175 17.5029C61.6077 17.5029 61.259 17.6503 60.9714 17.9451C60.691 18.2327 60.5508 18.6353 60.5508 19.1529C60.5508 19.6706 60.691 20.0804 60.9714 20.3823ZM62.0175 16.3706C62.8083 16.3706 63.459 16.633 63.9695 17.1578C64.4871 17.6827 64.7459 18.3477 64.7459 19.1529C64.7459 19.9582 64.4871 20.6268 63.9695 21.1588C63.459 21.6836 62.8083 21.9461 62.0175 21.9461C61.2338 21.9461 60.5832 21.6836 60.0655 21.1588C59.5551 20.6268 59.2999 19.9582 59.2999 19.1529C59.2999 18.3477 59.5551 17.6827 60.0655 17.1578C60.5832 16.633 61.2338 16.3706 62.0175 16.3706ZM68.805 16.5323H70.0991L71.3393 20.1667L72.3854 16.5323H73.6579L71.9756 21.7843H70.7246L69.4197 18.0098L68.1471 21.7843H66.8638L65.1599 16.5323H66.4971L67.5648 20.1667L68.805 16.5323ZM75.8628 18.7539V21.7843H74.6118V16.5323H75.8304V17.2333C75.9958 16.9457 76.2151 16.7336 76.4883 16.597C76.7687 16.4533 77.067 16.3814 77.3834 16.3814C78.0017 16.3814 78.4726 16.5755 78.7961 16.9637C79.1197 17.3519 79.2814 17.8516 79.2814 18.4627V21.7843H78.0304V18.6784C78.0304 18.3261 77.9442 18.0457 77.7716 17.8372C77.5991 17.6216 77.3259 17.5137 76.952 17.5137C76.6069 17.5137 76.3373 17.6323 76.1432 17.8696C75.9563 18.0997 75.8628 18.3944 75.8628 18.7539ZM82.0553 21.7843H80.8044V13.9765H82.0553V21.7843ZM84.9307 20.3823C85.2183 20.6771 85.567 20.8245 85.9768 20.8245C86.3866 20.8245 86.7317 20.6771 87.0121 20.3823C87.2997 20.0876 87.4435 19.6778 87.4435 19.1529C87.4435 18.6353 87.2997 18.2327 87.0121 17.9451C86.7317 17.6503 86.3866 17.5029 85.9768 17.5029C85.567 17.5029 85.2183 17.6503 84.9307 17.9451C84.6503 18.2327 84.5101 18.6353 84.5101 19.1529C84.5101 19.6706 84.6503 20.0804 84.9307 20.3823ZM85.9768 16.3706C86.7676 16.3706 87.4183 16.633 87.9288 17.1578C88.4464 17.6827 88.7052 18.3477 88.7052 19.1529C88.7052 19.9582 88.4464 20.6268 87.9288 21.1588C87.4183 21.6836 86.7676 21.9461 85.9768 21.9461C85.1931 21.9461 84.5425 21.6836 84.0248 21.1588C83.5144 20.6268 83.2591 19.9582 83.2591 19.1529C83.2591 18.3477 83.5144 17.6827 84.0248 17.1578C84.5425 16.633 85.1931 16.3706 85.9768 16.3706ZM89.5906 20.3608C89.5906 19.915 89.7344 19.5591 90.022 19.2931C90.3168 19.0199 90.7014 18.8474 91.1759 18.7755L92.524 18.5706C92.7828 18.5346 92.9122 18.4088 92.9122 18.1931C92.9122 17.9559 92.8295 17.7653 92.6642 17.6216C92.4988 17.4706 92.2508 17.3951 91.92 17.3951C91.6037 17.3951 91.3521 17.485 91.1651 17.6647C90.9782 17.8372 90.8704 18.0637 90.8416 18.3441L89.6985 18.0853C89.7488 17.6108 89.9753 17.2082 90.3779 16.8774C90.7805 16.5395 91.291 16.3706 91.9093 16.3706C92.6713 16.3706 93.2321 16.5539 93.5916 16.9206C93.9583 17.2872 94.1416 17.7582 94.1416 18.3333V20.9431C94.1416 21.2882 94.1632 21.5686 94.2063 21.7843H93.0416C93.0057 21.6765 92.9877 21.4536 92.9877 21.1157C92.6426 21.6693 92.1034 21.9461 91.37 21.9461C90.838 21.9461 90.4066 21.7915 90.0759 21.4823C89.7524 21.166 89.5906 20.7921 89.5906 20.3608ZM91.6073 20.9647C91.9955 20.9647 92.3083 20.8604 92.5455 20.6519C92.79 20.4363 92.9122 20.0876 92.9122 19.6059V19.3686L91.5426 19.5735C91.0753 19.6526 90.8416 19.8899 90.8416 20.2853C90.8416 20.4722 90.9099 20.634 91.0465 20.7706C91.1831 20.9 91.37 20.9647 91.6073 20.9647ZM96.4845 19.1421C96.4845 19.6454 96.6139 20.0516 96.8727 20.3608C97.1316 20.6627 97.4731 20.8137 97.8972 20.8137C98.3071 20.8137 98.6414 20.6591 98.9002 20.35C99.159 20.0408 99.2884 19.6346 99.2884 19.1314C99.2884 18.6353 99.1626 18.2399 98.911 17.9451C98.6593 17.6503 98.325 17.5029 97.908 17.5029C97.491 17.5029 97.1495 17.6539 96.8835 17.9559C96.6175 18.2506 96.4845 18.6461 96.4845 19.1421ZM100.496 13.9765V20.8245C100.496 21.1768 100.514 21.4967 100.55 21.7843H99.3531C99.3172 21.583 99.2992 21.3565 99.2992 21.1049C99.1698 21.3421 98.9685 21.5363 98.6953 21.6872C98.4221 21.8382 98.1093 21.9137 97.7571 21.9137C97.0093 21.9137 96.4018 21.6513 95.9345 21.1265C95.4672 20.6016 95.2335 19.9402 95.2335 19.1421C95.2335 18.3729 95.4672 17.7222 95.9345 17.1902C96.409 16.6582 97.0093 16.3921 97.7355 16.3921C98.1525 16.3921 98.4868 16.4676 98.7384 16.6186C98.9972 16.7696 99.177 16.9457 99.2776 17.147V13.9765H100.496ZM106.068 20.3823C106.355 20.6771 106.704 20.8245 107.114 20.8245C107.523 20.8245 107.869 20.6771 108.149 20.3823C108.436 20.0876 108.58 19.6778 108.58 19.1529C108.58 18.6353 108.436 18.2327 108.149 17.9451C107.869 17.6503 107.523 17.5029 107.114 17.5029C106.704 17.5029 106.355 17.6503 106.068 17.9451C105.787 18.2327 105.647 18.6353 105.647 19.1529C105.647 19.6706 105.787 20.0804 106.068 20.3823ZM107.114 16.3706C107.904 16.3706 108.555 16.633 109.066 17.1578C109.583 17.6827 109.842 18.3477 109.842 19.1529C109.842 19.9582 109.583 20.6268 109.066 21.1588C108.555 21.6836 107.904 21.9461 107.114 21.9461C106.33 21.9461 105.679 21.6836 105.162 21.1588C104.651 20.6268 104.396 19.9582 104.396 19.1529C104.396 18.3477 104.651 17.6827 105.162 17.1578C105.679 16.633 106.33 16.3706 107.114 16.3706ZM112.302 18.7539V21.7843H111.051V16.5323H112.27V17.2333C112.435 16.9457 112.654 16.7336 112.927 16.597C113.208 16.4533 113.506 16.3814 113.823 16.3814C114.441 16.3814 114.912 16.5755 115.235 16.9637C115.559 17.3519 115.721 17.8516 115.721 18.4627V21.7843H114.47V18.6784C114.47 18.3261 114.383 18.0457 114.211 17.8372C114.038 17.6216 113.765 17.5137 113.391 17.5137C113.046 17.5137 112.776 17.6323 112.582 17.8696C112.395 18.0997 112.302 18.3944 112.302 18.7539Z" fill="#ABE5E2"/>
<path d="M59.4501 39.7843L58.4386 37.0969H53.9092L52.9127 39.7843H50.9952L55.1623 29.0798H57.2609L61.428 39.7843H59.4501ZM56.1739 31.0425L54.5433 35.421H57.8044L56.1739 31.0425ZM64.4024 42.6529H62.6661V32.4316H64.3571V33.428C64.5484 33.0959 64.8503 32.8191 65.263 32.5976C65.6757 32.3762 66.1538 32.2655 66.6973 32.2655C67.7542 32.2655 68.5846 32.6278 69.1885 33.3525C69.7924 34.0672 70.0944 34.9831 70.0944 36.1004C70.0944 37.2176 69.7773 38.1436 69.1432 38.8784C68.5091 39.6031 67.6736 39.9655 66.6369 39.9655C66.1336 39.9655 65.6857 39.8699 65.2932 39.6786C64.9006 39.4874 64.6037 39.2458 64.4024 38.9539V42.6529ZM68.343 36.1004C68.343 35.4159 68.1618 34.8674 67.7995 34.4547C67.4371 34.0319 66.959 33.8206 66.3652 33.8206C65.7814 33.8206 65.3033 34.0319 64.9308 34.4547C64.5685 34.8674 64.3873 35.4159 64.3873 36.1004C64.3873 36.7949 64.5685 37.3535 64.9308 37.7763C65.3033 38.199 65.7814 38.4104 66.3652 38.4104C66.9489 38.4104 67.422 38.199 67.7844 37.7763C68.1568 37.3535 68.343 36.7949 68.343 36.1004ZM73.5143 42.6529H71.778V32.4316H73.469V33.428C73.6603 33.0959 73.9622 32.8191 74.3749 32.5976C74.7876 32.3762 75.2657 32.2655 75.8092 32.2655C76.8661 32.2655 77.6965 32.6278 78.3004 33.3525C78.9043 34.0672 79.2063 34.9831 79.2063 36.1004C79.2063 37.2176 78.8892 38.1436 78.2551 38.8784C77.621 39.6031 76.7856 39.9655 75.7488 39.9655C75.2456 39.9655 74.7976 39.8699 74.4051 39.6786C74.0125 39.4874 73.7156 39.2458 73.5143 38.9539V42.6529ZM77.4549 36.1004C77.4549 35.4159 77.2737 34.8674 76.9114 34.4547C76.549 34.0319 76.0709 33.8206 75.4771 33.8206C74.8933 33.8206 74.4152 34.0319 74.0427 34.4547C73.6804 34.8674 73.4992 35.4159 73.4992 36.1004C73.4992 36.7949 73.6804 37.3535 74.0427 37.7763C74.4152 38.199 74.8933 38.4104 75.4771 38.4104C76.0608 38.4104 76.5339 38.199 76.8963 37.7763C77.2687 37.3535 77.4549 36.7949 77.4549 36.1004ZM91.8216 31.5861L90.191 32.0994C90.1206 31.6867 89.9142 31.3093 89.572 30.967C89.2298 30.6248 88.7366 30.4537 88.0924 30.4537C87.5589 30.4537 87.1161 30.6047 86.7638 30.9067C86.4216 31.2086 86.2505 31.571 86.2505 31.9937C86.2505 32.7285 86.6682 33.1865 87.5036 33.3676L89.0436 33.6847C89.9696 33.8659 90.6842 34.2333 91.1875 34.7869C91.6908 35.3404 91.9424 35.9997 91.9424 36.7647C91.9424 37.6504 91.6002 38.4154 90.9157 39.0596C90.2414 39.6937 89.3204 40.0108 88.1528 40.0108C86.8946 40.0108 85.9133 39.6836 85.2087 39.0294C84.5041 38.3651 84.1065 37.5951 84.0159 36.7194L85.7069 36.2363C85.7673 36.8402 86.0089 37.3485 86.4316 37.7612C86.8544 38.1738 87.4281 38.3802 88.1528 38.3802C88.7769 38.3802 89.255 38.2443 89.5871 37.9725C89.9293 37.6907 90.1005 37.3334 90.1005 36.9006C90.1005 36.5483 89.9746 36.2463 89.723 35.9947C89.4714 35.733 89.1191 35.5518 88.6661 35.4512L87.1563 35.1341C86.3209 34.963 85.6566 34.6157 85.1634 34.0923C84.6803 33.5689 84.4387 32.9147 84.4387 32.1296C84.4387 31.2338 84.796 30.4638 85.5106 29.8196C86.2253 29.1754 87.0808 28.8533 88.0773 28.8533C89.2147 28.8533 90.0854 29.1301 90.6893 29.6837C91.2932 30.2272 91.6706 30.8614 91.8216 31.5861ZM95.8631 30.1819V32.4316H97.388V33.9867H95.8631V37.3988C95.8631 37.7209 95.9386 37.9574 96.0895 38.1084C96.2405 38.2493 96.4771 38.3198 96.7991 38.3198C97.0005 38.3198 97.2018 38.2997 97.4031 38.2594V39.7088C97.1414 39.8195 96.784 39.8749 96.3311 39.8749C95.6467 39.8749 95.1082 39.6836 94.7156 39.3012C94.3231 38.9086 94.1268 38.3701 94.1268 37.6857V33.9867H92.768V32.4316H93.1454C93.5178 32.4316 93.7997 32.3259 93.9909 32.1145C94.1822 31.9031 94.2778 31.6263 94.2778 31.2841V30.1819H95.8631ZM100.88 37.8216C101.283 38.2342 101.771 38.4406 102.345 38.4406C102.918 38.4406 103.402 38.2342 103.794 37.8216C104.197 37.4089 104.398 36.8352 104.398 36.1004C104.398 35.3757 104.197 34.812 103.794 34.4094C103.402 33.9967 102.918 33.7904 102.345 33.7904C101.771 33.7904 101.283 33.9967 100.88 34.4094C100.488 34.812 100.291 35.3757 100.291 36.1004C100.291 36.8251 100.488 37.3988 100.88 37.8216ZM102.345 32.2051C103.452 32.2051 104.363 32.5725 105.077 33.3072C105.802 34.042 106.165 34.9731 106.165 36.1004C106.165 37.2277 105.802 38.1638 105.077 38.9086C104.363 39.6434 103.452 40.0108 102.345 40.0108C101.248 40.0108 100.337 39.6434 99.612 38.9086C98.8973 38.1638 98.54 37.2277 98.54 36.1004C98.54 34.9731 98.8973 34.042 99.612 33.3072C100.337 32.5725 101.248 32.2051 102.345 32.2051ZM112.16 32.3863V34.1678C111.959 34.1376 111.767 34.1225 111.586 34.1225C110.268 34.1225 109.608 34.8422 109.608 36.2816V39.7843H107.857V32.4316H109.563V33.6092C109.734 33.2167 110.011 32.9097 110.394 32.6882C110.776 32.4567 111.209 32.341 111.692 32.341C111.853 32.341 112.009 32.3561 112.16 32.3863ZM114.771 35.3002H118.38C118.36 34.8372 118.193 34.4497 117.881 34.1376C117.579 33.8256 117.142 33.6696 116.568 33.6696C116.045 33.6696 115.622 33.8357 115.3 34.1678C114.978 34.4899 114.801 34.8674 114.771 35.3002ZM118.576 37.2176L120.056 37.6857C119.844 38.3601 119.447 38.9187 118.863 39.3616C118.289 39.7944 117.579 40.0108 116.734 40.0108C115.687 40.0108 114.796 39.6535 114.062 38.9388C113.337 38.2242 112.975 37.268 112.975 36.0702C112.975 34.9429 113.327 34.0169 114.031 33.2921C114.746 32.5674 115.587 32.2051 116.553 32.2051C117.68 32.2051 118.561 32.5523 119.195 33.2469C119.829 33.9313 120.146 34.8573 120.146 36.0249C120.146 36.3369 120.131 36.5231 120.101 36.5835H114.726C114.746 37.1371 114.947 37.5951 115.33 37.9574C115.722 38.3198 116.19 38.501 116.734 38.501C117.68 38.501 118.294 38.0732 118.576 37.2176Z" fill="white"/>
<rect x="0.812576" y="0.5" width="138.865" height="53.5686" rx="8.12745" stroke="#D5F2F0"/>
</svg>
