<svg width="459" height="459" viewBox="0 0 459 459" fill="none" xmlns="http://www.w3.org/2000/svg">
<rect width="459" height="459" rx="19.4074" fill="#EAF8F8"/>
<path d="M116.821 152.922C116.799 150.457 117.757 148.084 119.484 146.325C121.212 144.567 123.567 143.566 126.032 143.544C159.035 143.247 191.09 131.27 222.38 107.353C223.978 106.132 225.929 105.462 227.94 105.444C229.951 105.426 231.914 106.06 233.534 107.253C265.25 130.603 297.515 142 330.518 141.702C332.983 141.68 335.356 142.638 337.115 144.366C338.874 146.093 339.874 148.448 339.897 150.914L340.482 215.977C340.503 218.22 340.473 220.439 340.394 222.658C334.292 216.601 326.527 212.494 318.086 210.858C309.644 209.223 300.908 210.133 292.985 213.473C285.062 216.813 278.31 222.432 273.587 229.617C268.864 236.802 266.383 245.228 266.459 253.826L266.464 254.446C259.479 255.937 253.224 259.796 248.757 265.37C244.29 270.944 241.886 277.89 241.951 285.032L242.509 346.997C242.515 347.617 242.533 348.212 242.575 348.806C239.637 350.122 236.649 351.388 233.562 352.631C231.383 353.51 228.952 353.532 226.758 352.692C155.034 325.178 117.965 279.951 117.407 217.986L116.821 152.922ZM278.963 266.108L278.852 253.715C278.778 245.497 281.971 237.587 287.729 231.725C293.487 225.862 301.338 222.527 309.555 222.453C317.773 222.379 325.683 225.572 331.545 231.33C337.408 237.088 340.743 244.939 340.817 253.157L340.929 265.55L347.125 265.494C352.056 265.449 356.802 267.365 360.319 270.82C363.837 274.275 365.838 278.986 365.882 283.916L366.44 345.882C366.485 350.812 364.569 355.558 361.114 359.075C357.659 362.593 352.948 364.594 348.018 364.639L273.66 365.308C268.729 365.352 263.983 363.436 260.466 359.982C256.948 356.527 254.947 351.816 254.903 346.886L254.345 284.92C254.3 279.99 256.216 275.244 259.671 271.727C263.126 268.209 267.837 266.208 272.767 266.163L278.963 266.108ZM297.441 253.547L297.553 265.94L322.339 265.717L322.228 253.324C322.198 250.037 320.864 246.897 318.519 244.593C316.174 242.29 313.01 241.013 309.723 241.042C306.436 241.072 303.296 242.406 300.992 244.751C298.689 247.096 297.412 250.26 297.441 253.547ZM322.786 315.289C322.756 312.003 321.422 308.862 319.077 306.559C316.732 304.256 313.568 302.978 310.281 303.008C306.994 303.037 303.854 304.372 301.55 306.717C299.247 309.062 297.97 312.226 297.999 315.513C298.029 318.799 299.363 321.94 301.708 324.243C304.053 326.546 307.217 327.824 310.504 327.794C313.791 327.764 316.931 326.43 319.235 324.085C321.538 321.74 322.815 318.576 322.786 315.289Z" fill="#4ADE80"/>
</svg>
