<svg width="155" height="41" viewBox="0 0 155 41" fill="none" xmlns="http://www.w3.org/2000/svg">
<path d="M55.6044 29.145C55.2094 28.041 54.4168 27.2865 53.5009 27.2865H48.4349C48.4349 27.2865 46.1235 27.2879 45.7795 24.7075L44.6443 26.0692L44.9175 29.3064C44.9175 29.3064 45.4624 33.2514 48.4349 34.1658H53.5009C53.5009 34.1658 54.7466 33.7807 55.1755 33.1579C55.6044 32.5351 55.869 31.6745 55.869 30.7247C55.869 30.1557 55.7728 29.6178 55.6044 29.145Z" fill="url(#paint0_linear_956_967)"/>
<path d="M71.34 8.898C71.2763 9.10466 71.2056 9.31981 71.1277 9.5378C71.1263 9.54204 71.1249 9.54629 71.1235 9.55054C70.4157 11.535 69.0894 13.8805 66.7808 13.8805H52.064C47.0292 13.8805 48.3385 18.3308 48.3682 18.4298C43.7523 6.83423 52.064 6.83423 52.064 6.83423H70.2614C70.9338 6.93473 71.7378 7.35937 71.34 8.898Z" fill="url(#paint1_linear_956_967)"/>
<path d="M63.7094 18.3633C63.1772 17.2323 62.1057 16.4595 60.8699 16.4595H53.5463H48.1108C48.1108 16.4595 41.4 16.4595 45.127 28.0551C45.1029 27.956 44.0455 23.5057 48.1108 23.5057H53.5463H59.9909H60.8699C61.7518 23.5057 62.5515 23.1108 63.1305 22.4738C63.7094 21.8355 64.0661 20.955 64.0661 19.9826C64.0661 19.3994 63.9387 18.8488 63.7094 18.3633Z" fill="url(#paint2_linear_956_967)"/>
<path d="M87.6389 11.8627C87.0486 11.8627 86.5238 12.0376 86.0647 12.3874C85.6055 12.7154 85.3759 13.2839 85.3759 14.0929V15.8639H91.8041V8.255H96.1661V32H91.8041V19.6027H85.3759V32H80.9812V19.6027H78.2918V15.8639H80.9812V14.0273C80.9812 12.2125 81.5059 10.7585 82.5554 9.66527C83.6268 8.57204 85.0589 8.02542 86.8518 8.02542C87.8139 8.02542 88.5354 8.13474 89.0164 8.35339V12.0266C88.6447 11.9173 88.1855 11.8627 87.6389 11.8627ZM105.181 32H100.819V15.8639H105.181V32ZM100.295 10.5836C100.295 9.84018 100.557 9.20611 101.082 8.68136C101.607 8.13474 102.241 7.86143 102.984 7.86143C103.727 7.86143 104.362 8.12381 104.886 8.64856C105.411 9.17331 105.673 9.81832 105.673 10.5836C105.673 11.3051 105.411 11.9283 104.886 12.453C104.362 12.9778 103.727 13.2401 102.984 13.2401C102.241 13.2401 101.607 12.9778 101.082 12.453C100.557 11.9283 100.295 11.3051 100.295 10.5836ZM117.1 19.406C115.941 19.406 114.968 19.8105 114.181 20.6195C113.394 21.4284 113 22.5326 113 23.9319C113 25.3313 113.394 26.4464 114.181 27.2772C114.99 28.0862 115.974 28.4907 117.132 28.4907C118.16 28.4907 118.98 28.2283 119.592 27.7036C120.204 27.157 120.62 26.512 120.838 25.7686L124.676 27.0477C124.282 28.5345 123.429 29.8135 122.118 30.8849C120.806 31.9563 119.144 32.492 117.132 32.492C114.727 32.492 112.705 31.683 111.065 30.065C109.447 28.4251 108.638 26.3808 108.638 23.9319C108.638 21.4612 109.436 19.4169 111.032 17.7989C112.65 16.1809 114.64 15.3719 117.001 15.3719C119.056 15.3719 120.74 15.9076 122.052 16.979C123.364 18.0285 124.206 19.3076 124.577 20.8162L120.674 22.1281C120.15 20.3133 118.958 19.406 117.1 19.406ZM143.528 15.8639L137.067 22.6529L143.659 32H138.313L134.049 25.8342L132.245 27.7364V32H127.883V8.255H132.245V21.8657L137.821 15.8639H143.528ZM146.667 31.3769C146.077 30.7865 145.782 30.0759 145.782 29.2451C145.782 28.4142 146.077 27.7145 146.667 27.146C147.258 26.5557 147.957 26.2605 148.766 26.2605C149.597 26.2605 150.308 26.5557 150.898 27.146C151.488 27.7145 151.784 28.4142 151.784 29.2451C151.784 30.0759 151.488 30.7865 150.898 31.3769C150.308 31.9453 149.597 32.2296 148.766 32.2296C147.957 32.2296 147.258 31.9453 146.667 31.3769Z" fill="#151F32"/>
<defs>
<linearGradient id="paint0_linear_956_967" x1="54.9557" y1="24.7009" x2="45.623" y2="33.595" gradientUnits="userSpaceOnUse">
<stop stop-color="#E21C23"/>
<stop offset="1" stop-color="#AE1E22"/>
</linearGradient>
<linearGradient id="paint1_linear_956_967" x1="46.9725" y1="15.2264" x2="58.8643" y2="-0.77926" gradientUnits="userSpaceOnUse">
<stop stop-color="#ED1A70"/>
<stop offset="1" stop-color="#F15D2F"/>
</linearGradient>
<linearGradient id="paint2_linear_956_967" x1="62.2042" y1="16.4231" x2="52.6415" y2="30.3144" gradientUnits="userSpaceOnUse">
<stop stop-color="#6AC28C"/>
<stop offset="1" stop-color="#38BDB1"/>
</linearGradient>
</defs>
</svg>
